<svg width="1920" height="375" viewBox="0 0 1920 375" fill="none" xmlns="http://www.w3.org/2000/svg">
<path d="M1663.59 107.497C1663.59 44.0885 1716.06 0 1792.29 0C1865.55 0 1912.08 40.6209 1914.06 106.011H1850.7C1849.22 74.8018 1826.94 56.4729 1791.3 56.4729C1752.2 56.4729 1726.95 75.2972 1726.95 105.515C1726.95 131.275 1740.81 145.641 1771.01 152.576L1827.93 164.96C1889.8 178.336 1920 210.04 1920 264.036C1920 331.407 1867.53 375 1787.84 375C1710.62 375 1660.13 333.884 1658.64 268.989H1722C1722.5 299.703 1747.25 318.032 1787.84 318.032C1829.91 318.032 1856.64 299.703 1856.64 269.485C1856.64 245.211 1844.27 230.845 1814.57 224.406L1757.15 211.526C1695.77 198.151 1663.59 162.979 1663.59 107.497Z" fill="url(#paint0_linear_434_9120)"/>
<path d="M1331.97 368.558H1270.59V6.4375H1331.97L1448.79 294.747L1565.61 6.4375H1627.98V368.558H1566.6V257.098C1566.6 184.278 1566.6 162.976 1570.06 137.217L1477.99 368.558H1419.59L1328.01 137.712C1331.48 159.509 1331.97 193.69 1331.97 238.769V368.558Z" fill="url(#paint1_linear_434_9120)"/>
<path d="M966.746 64.8919V6.4375H1241.96V64.8919H1136.03V368.558H1072.67V64.8919H966.746Z" fill="url(#paint2_linear_434_9120)"/>
<path d="M895.311 368.557H834.922V174.369H787.898V123.841H834.922V47.5527H895.311V123.841H942.83V174.369H895.311V368.557Z" fill="url(#paint3_linear_434_9120)"/>
<path d="M600.854 368.559H540.465V123.843H596.399L601.349 155.547C616.693 130.778 646.393 116.412 679.557 116.412C740.935 116.412 772.615 154.556 772.615 217.964V368.559H712.226V232.33C712.226 191.214 691.932 171.399 660.747 171.399C623.623 171.399 600.854 197.158 600.854 236.789V368.559Z" fill="url(#paint4_linear_434_9120)"/>
<path d="M437.502 123.842H497.891V368.558H441.957L437.502 335.863C422.653 359.146 390.973 374.998 358.304 374.998C301.875 374.998 268.711 336.854 268.711 276.913V123.842H329.1V255.612C329.1 302.177 347.414 321.002 381.074 321.002C419.188 321.002 437.502 298.71 437.502 252.144V123.842Z" fill="url(#paint5_linear_434_9120)"/>
<path d="M60.3887 368.56H0V0H60.8837V155.548C76.2283 131.77 104.938 116.413 140.082 116.413C200.471 116.413 232.15 154.557 232.15 217.966V368.56H171.761V232.332C171.761 191.215 151.467 171.4 120.777 171.4C82.6632 171.4 60.3887 198.151 60.3887 234.808V368.56Z" fill="url(#paint6_linear_434_9120)"/>
<defs>
<linearGradient id="paint0_linear_434_9120" x1="1801.77" y1="361.716" x2="1801.77" y2="-60.8558" gradientUnits="userSpaceOnUse">
<stop stop-color="#D7D7D7" stop-opacity="0"/>
<stop offset="1" stop-color="#C2C2C2"/>
</linearGradient>
<linearGradient id="paint1_linear_434_9120" x1="1466.3" y1="355.73" x2="1466.3" y2="-52.3281" gradientUnits="userSpaceOnUse">
<stop stop-color="#D7D7D7" stop-opacity="0"/>
<stop offset="1" stop-color="#C2C2C2"/>
</linearGradient>
<linearGradient id="paint2_linear_434_9120" x1="1117.46" y1="355.73" x2="1117.46" y2="-52.3281" gradientUnits="userSpaceOnUse">
<stop stop-color="#D7D7D7" stop-opacity="0"/>
<stop offset="1" stop-color="#C2C2C2"/>
</linearGradient>
<linearGradient id="paint3_linear_434_9120" x1="872.742" y1="357.185" x2="872.742" y2="-4.54046" gradientUnits="userSpaceOnUse">
<stop stop-color="#D7D7D7" stop-opacity="0"/>
<stop offset="1" stop-color="#C2C2C2"/>
</linearGradient>
<linearGradient id="paint4_linear_434_9120" x1="667.594" y1="359.627" x2="667.594" y2="75.4932" gradientUnits="userSpaceOnUse">
<stop stop-color="#D7D7D7" stop-opacity="0"/>
<stop offset="1" stop-color="#C2C2C2"/>
</linearGradient>
<linearGradient id="paint5_linear_434_9120" x1="394.214" y1="366.101" x2="394.214" y2="83.0837" gradientUnits="userSpaceOnUse">
<stop stop-color="#D7D7D7" stop-opacity="0"/>
<stop offset="1" stop-color="#C2C2C2"/>
</linearGradient>
<linearGradient id="paint6_linear_434_9120" x1="127.13" y1="355.504" x2="127.13" y2="-59.8107" gradientUnits="userSpaceOnUse">
<stop stop-color="#D7D7D7" stop-opacity="0"/>
<stop offset="1" stop-color="#C2C2C2"/>
</linearGradient>
</defs>
</svg>
