<svg width="629" height="113" viewBox="0 0 629 113" fill="none" xmlns="http://www.w3.org/2000/svg">
<g id="Logo">
<g id="Logo Part 1">
<path id="Ellipse 9" d="M70.7066 55.6811C70.7066 61.8942 65.67 66.9309 59.4569 66.9309C53.2439 66.9309 48.2073 61.8942 48.2073 55.6811C48.2073 49.468 53.2439 44.4314 59.4569 44.4314C65.67 44.4314 70.7066 49.468 70.7066 55.6811Z" fill="currentColor"/>
<g id="Logo Part 2">
<path id="Subtract" d="M29.5392 64.2086C31.5131 71.5503 36.1378 77.8045 42.3245 81.8824C47.147 85.061 51.2144 89.8985 51.2144 95.6743V112.42C50.117 108.739 46.9799 105.826 43.1744 104.564C28.0583 99.5535 16.0838 87.6523 10.9716 72.5825C9.37446 67.8745 5.24525 64.2086 0.273755 64.2086H29.5392ZM51.2144 26.5377C40.3936 29.4469 31.9343 38.1155 29.3247 49.0558H0C5.0355 49.0557 9.19755 45.2991 10.7488 40.5084C15.7305 25.1223 27.8359 12.9421 43.1752 7.85726C46.9808 6.59564 50.1173 3.68236 51.2144 0.000488281V26.5377Z" fill="currentColor"/>
<path id="Subtract_2" d="M89.3555 64.2082C87.3817 71.5498 82.757 77.804 76.5702 81.8819C71.7478 85.0605 67.6804 89.898 67.6804 95.6738V112.42C68.7778 108.738 71.9149 105.825 75.7204 104.564C90.8365 99.553 102.811 87.6518 107.923 72.582C109.52 67.874 113.65 64.2082 118.621 64.2082H89.3555ZM67.6804 26.5373C78.5011 29.4464 86.9605 38.115 89.5701 49.0553H118.895C113.859 49.0552 109.697 45.2986 108.146 40.5079C103.164 25.1218 91.0588 12.9416 75.7196 7.85677C71.914 6.59515 68.7775 3.68187 67.6804 0V26.5373Z" fill="currentColor"/>
</g>
</g>
<path id="Logo Text" d="M173.808 94.2104H161.619V19.8772H173.907V51.249C177.005 46.4533 182.799 43.3561 189.893 43.3561C202.082 43.3561 208.476 51.0492 208.476 63.8377V94.2104H196.287V66.7351C196.287 58.4426 192.191 54.4461 185.997 54.4461C178.303 54.4461 173.808 59.8413 173.808 67.2346V94.2104ZM249.926 44.8548H262.115V94.2104H250.825L249.926 87.6163C246.928 92.3121 240.534 95.5092 233.94 95.5092C222.55 95.5092 215.856 87.8161 215.856 75.727V44.8548H228.045V71.4309C228.045 80.8224 231.742 84.619 238.536 84.619C246.229 84.619 249.926 80.123 249.926 70.7315V44.8548ZM282.897 94.2104H270.708V44.8548H281.998L282.997 51.249C286.094 46.2535 292.089 43.3561 298.783 43.3561C311.171 43.3561 317.566 51.0492 317.566 63.8377V94.2104H305.377V66.7351C305.377 58.4426 301.28 54.4461 294.986 54.4461C287.493 54.4461 282.897 59.6415 282.897 67.6343V94.2104ZM342.33 94.2104H330.141V55.0456H320.65V44.8548H330.141V29.4686H342.33V44.8548H351.922V55.0456H342.33V94.2104ZM377.095 95.5092C362.408 95.5092 352.117 84.8188 352.117 69.5326C352.117 54.0465 362.208 43.3561 376.695 43.3561C391.482 43.3561 400.874 53.2472 400.874 68.6334V72.3301L363.707 72.43C364.606 81.1221 369.202 85.5182 377.295 85.5182C383.989 85.5182 388.385 82.9205 389.784 78.2248H401.073C398.975 89.015 389.983 95.5092 377.095 95.5092ZM376.795 53.3471C369.602 53.3471 365.206 57.2436 364.007 64.637H388.784C388.784 57.8431 384.089 53.3471 376.795 53.3471ZM437.605 44.655V55.9448H433.109C424.317 55.9448 418.821 60.6406 418.821 70.2319V94.2104H406.632V44.9547H418.122L418.821 52.1482C420.92 47.2526 425.615 43.9556 432.209 43.9556C433.908 43.9556 435.606 44.1554 437.605 44.655ZM432.579 32.9655V21.1761H488.129V32.9655H466.749V94.2104H453.96V32.9655H432.579ZM506.297 94.2104H493.909V21.1761H506.297L529.876 79.3238L553.455 21.1761H566.044V94.2104H553.655V71.7306C553.655 57.0438 553.655 52.7477 554.354 47.5524L535.771 94.2104H523.982L505.498 47.6523C506.198 52.0483 506.297 58.9421 506.297 68.0339V94.2104ZM573.235 41.5577C573.235 28.7692 583.825 19.8772 599.212 19.8772C613.998 19.8772 623.39 28.0699 623.789 41.258H611.001C610.701 34.9637 606.205 31.267 599.012 31.267C591.119 31.267 586.023 35.0636 586.023 41.1581C586.023 46.3534 588.821 49.2508 594.915 50.6496L606.405 53.1473C618.894 55.8449 624.988 62.2391 624.988 73.1293C624.988 86.7171 614.398 95.5092 598.312 95.5092C582.726 95.5092 572.536 87.2167 572.236 74.1284H585.024C585.124 80.3229 590.12 84.0195 598.312 84.0195C606.805 84.0195 612.2 80.3229 612.2 74.2284C612.2 69.3328 609.702 66.4354 603.707 65.1365L592.118 62.5389C579.729 59.8413 573.235 52.7477 573.235 41.5577Z" fill="currentColor"/>
</g>
</svg>
