<svg width="95" height="20" viewBox="0 0 95 20" fill="none" xmlns="http://www.w3.org/2000/svg">
<g clip-path="url(#clip0_434_9077)">
<path d="M7.09087 0.813272C5.6213 1.3004 4.31491 2.14452 3.27359 3.24258C2.17517 4.28384 1.33099 5.59045 0.844137 7.05963C0.701688 7.48936 0.443536 7.8725 0.108149 8.14927C-0.045119 8.27609 0.0462408 8.52581 0.24549 8.52581H3.82265C4.06878 8.52581 4.29057 8.37195 4.37171 8.13966C4.67945 7.25676 5.20206 6.47454 5.87644 5.85549C5.88035 5.85189 5.88366 5.84858 5.88726 5.84468C6.50665 5.17034 7.28892 4.64805 8.17156 4.34003C8.40387 4.2589 8.55774 4.03742 8.55774 3.79101V0.21436C8.55774 0.0151233 8.308 -0.0765316 8.18118 0.077028C7.90409 0.412395 7.52122 0.670231 7.09147 0.812972H7.09117L7.09087 0.813272Z" fill="#171717"/>
<path d="M12.9356 0.813272C14.4052 1.3004 15.7116 2.14452 16.7529 3.24258C17.8513 4.28384 18.6955 5.59045 19.1824 7.05963C19.3248 7.48936 19.583 7.8725 19.9183 8.14927C20.0716 8.27609 19.9802 8.52581 19.781 8.52581H16.2038C15.9577 8.52581 15.7359 8.37195 15.6548 8.13966C15.347 7.25676 14.8244 6.47454 14.15 5.85549C14.1461 5.85189 14.1428 5.84858 14.1392 5.84468C13.5198 5.17034 12.7376 4.64805 11.8549 4.34003C11.6226 4.2589 11.4688 4.03742 11.4688 3.79101V0.21436C11.4688 0.0151233 11.7185 -0.0765316 11.8453 0.077028C12.1224 0.412395 12.5053 0.670231 12.935 0.812972H12.9353L12.9356 0.813272Z" fill="#171717"/>
<path d="M12.9356 19.1539C14.4052 18.6668 15.7116 17.8227 16.7529 16.7246C17.8513 15.6834 18.6955 14.3768 19.1824 12.9076C19.3248 12.4779 19.583 12.0947 19.9183 11.8179C20.0716 11.6911 19.9802 11.4414 19.781 11.4414H16.2038C15.9577 11.4414 15.7359 11.5953 15.6548 11.8276C15.347 12.7105 14.8244 13.4927 14.15 14.1117C14.1461 14.1153 14.1428 14.1186 14.1392 14.1225C13.7732 14.521 13.3506 14.8666 12.8836 15.1461C12.0052 15.672 11.4688 16.6216 11.4688 17.6454V19.7526C11.4688 19.9518 11.7185 20.0434 11.8453 19.8899C12.1224 19.5545 12.5053 19.2967 12.935 19.1539H12.9353H12.9356Z" fill="#171717"/>
<path d="M7.0916 19.1539C5.62203 18.6668 4.31565 17.8227 3.27432 16.7246C2.1759 15.6834 1.33172 14.3768 0.844872 12.9076C0.697314 12.4631 0.426841 12.0689 0.0746242 11.79C-0.0708304 11.6749 0.0106121 11.4414 0.196037 11.4414H3.82369C4.06982 11.4414 4.2916 11.5953 4.37275 11.8276C4.68048 12.7108 5.2031 13.493 5.87808 14.1123C5.88169 14.1156 5.88469 14.1186 5.888 14.1222C6.25404 14.521 6.67688 14.8666 7.1439 15.1461C8.02233 15.672 8.55877 16.6216 8.55877 17.6454V19.8033C8.55877 19.9888 8.32526 20.0699 8.21016 19.9247C7.93158 19.5729 7.53698 19.3021 7.09251 19.1545L7.09191 19.1539H7.0916Z" fill="#171717"/>
<path d="M9.99936 11.7485C10.9655 11.7485 11.7487 10.9653 11.7487 9.99926C11.7487 9.03317 10.9655 8.25 9.99936 8.25C9.03322 8.25 8.25 9.03317 8.25 9.99926C8.25 10.9653 9.03322 11.7485 9.99936 11.7485Z" fill="#171717"/>
</g>
<path d="M31.7903 16H29.7587V3.61115H31.8069V8.83978C32.3231 8.04049 33.2889 7.52429 34.4712 7.52429C36.5027 7.52429 37.5684 8.80647 37.5684 10.9379V16H35.5369V11.4208C35.5369 10.0387 34.8542 9.37263 33.8218 9.37263C32.5396 9.37263 31.7903 10.2718 31.7903 11.504V16ZM44.4766 7.77407H46.5081V16H44.6265L44.4766 14.901C43.9771 15.6836 42.9114 16.2165 41.8124 16.2165C39.9141 16.2165 38.7984 14.9343 38.7984 12.9194V7.77407H40.8299V12.2034C40.8299 13.7687 41.446 14.4014 42.5783 14.4014C43.8605 14.4014 44.4766 13.6521 44.4766 12.0869V7.77407ZM49.9718 16H47.9403V7.77407H49.8219L49.9885 8.83978C50.5047 8.00719 51.5038 7.52429 52.6194 7.52429C54.6842 7.52429 55.7499 8.80647 55.7499 10.9379V16H53.7184V11.4208C53.7184 10.0387 53.0357 9.37263 51.9867 9.37263C50.7378 9.37263 49.9718 10.2385 49.9718 11.5707V16ZM59.8774 16H57.8458V9.47254H56.2639V7.77407H57.8458V5.20971H59.8774V7.77407H61.4759V9.47254H59.8774V16ZM61.3068 5.79252V3.82762H70.5651V5.79252H67.0017V16H64.8703V5.79252H61.3068ZM73.5931 16H71.5283V3.82762H73.5931L77.5229 13.5189L81.4527 3.82762H83.5508V16H81.486V12.2534C81.486 9.80557 81.486 9.08955 81.6026 8.22366L78.5054 16H76.5405L73.4599 8.24032C73.5765 8.97299 73.5931 10.122 73.5931 11.6373V16ZM84.7494 7.22456C84.7494 5.09315 86.5145 3.61115 89.0788 3.61115C91.5433 3.61115 93.1085 4.97658 93.1751 7.17461H91.0437C90.9938 6.12555 90.2444 5.50944 89.0455 5.50944C87.73 5.50944 86.8808 6.1422 86.8808 7.15796C86.8808 8.02384 87.347 8.50674 88.3628 8.73987L90.2777 9.15616C92.3592 9.60575 93.3749 10.6715 93.3749 12.4865C93.3749 14.7511 91.6099 16.2165 88.9289 16.2165C86.3313 16.2165 84.6328 14.8344 84.5829 12.653H86.7143C86.7309 13.6854 87.5635 14.3015 88.9289 14.3015C90.3443 14.3015 91.2435 13.6854 91.2435 12.6697C91.2435 11.8537 90.8272 11.3708 89.8281 11.1544L87.8965 10.7214C85.8317 10.2718 84.7494 9.08955 84.7494 7.22456Z" fill="#171717"/>
<defs>
<clipPath id="clip0_434_9077">
<rect width="20" height="20" fill="white"/>
</clipPath>
</defs>
</svg>
